<svg xmlns="http://www.w3.org/2000/svg" xml:space="preserve" style="fill-rule:evenodd;clip-rule:evenodd;stroke-linejoin:round;stroke-miterlimit:2" viewBox="0 0 505 140"><path d="M1.957 2.023a.498.498 0 0 0-.344.153l-.238.25C.441 3.395-.023 4.699-.023 6c0 1.301.464 2.605 1.398 3.574l.238.25a.496.496 0 1 0 .715-.687l-.234-.25c-1.469-1.532-1.469-4.239 0-5.774l.234-.25a.495.495 0 0 0-.371-.84Zm12.039 0a.498.498 0 0 0-.371.84l.238.25c1.469 1.535 1.469 4.242 0 5.774l-.238.25a.498.498 0 0 0 .719.687l.238-.25c.93-.969 1.395-2.273 1.395-3.574 0-1.301-.465-2.605-1.395-3.574l-.238-.25a.5.5 0 0 0-.348-.153ZM3.457 3.516a.483.483 0 0 0-.312.129l-.274.25c-.613.554-.906 1.343-.902 2.125.008.777.312 1.55.902 2.085l.274.25a.496.496 0 1 0 .668-.734l-.27-.246c-.699-.637-.746-2.07 0-2.75l.27-.246a.496.496 0 0 0-.356-.863Zm8.992 0a.49.49 0 0 0-.344.16.5.5 0 0 0 .036.703l.273.246c.742.68.695 2.113 0 2.75l-.273.246a.5.5 0 0 0-.036.703c.188.203.5.219.708.031l.269-.25c.59-.535.895-1.308.902-2.085.008-.782-.289-1.571-.902-2.125l-.269-.25a.51.51 0 0 0-.364-.129ZM4.75 5a.75.75 0 0 0-.586 1.219L7 9.762V16h2V9.762l2.836-3.543A.75.75 0 0 0 11.25 5h-6.5Zm1.563 1.5h3.375L8 8.613 6.313 6.5Z" style="fill:#1c1c1c;fill-rule:nonzero" transform="translate(.235 -20.266) scale(10.0166)"/><path d="M279.542 150V38.275h37.573l16.548 48.164c.775 2.497 1.662 5.76 2.659 9.788a501.38 501.38 0 0 1 3.025 13.006 848.293 848.293 0 0 1 2.85 13.487c.881 4.35 1.6 8.111 2.156 11.282h-4.704a778.73 778.73 0 0 1 2.16-11.17 742.907 742.907 0 0 1 2.827-13.473 556.454 556.454 0 0 1 3.015-13.061c.991-4.057 1.874-7.343 2.649-9.859l16.313-48.164h37.65V150h-24.429V99.139c0-2.456.044-5.559.131-9.309.088-3.75.193-7.815.316-12.194.122-4.38.236-8.794.342-13.241.107-4.448.169-8.608.188-12.48h1.529a468.032 468.032 0 0 1-3.172 13.22 825.26 825.26 0 0 1-3.496 13.267 560.962 560.962 0 0 1-3.351 11.818 409.213 409.213 0 0 1-2.739 8.919L352.147 150h-20.424l-17.716-50.861a390.905 390.905 0 0 1-2.733-8.849 779.503 779.503 0 0 1-3.394-11.749 675.601 675.601 0 0 1-3.581-13.266 999.819 999.819 0 0 1-3.369-13.36h1.868a870.3 870.3 0 0 0 .216 12.228c.106 4.411.215 8.82.328 13.227l.315 12.306c.097 3.796.145 6.951.145 9.463V150h-24.26ZM435.631 150V38.275h75.901v20.037h-51.577v25.423h47.573v19.661h-47.573v26.567h51.639V150h-75.963ZM583.192 151.572c-9.085 0-16.997-1.386-23.737-4.158-6.74-2.772-11.988-6.911-15.746-12.416-3.757-5.506-5.735-12.357-5.933-20.552h23.521c.274 3.697 1.345 6.79 3.214 9.279s4.386 4.356 7.551 5.603c3.164 1.246 6.78 1.869 10.846 1.869 3.92 0 7.319-.558 10.197-1.674 2.878-1.116 5.107-2.679 6.687-4.689 1.58-2.011 2.371-4.331 2.371-6.962 0-2.406-.715-4.428-2.143-6.065-1.428-1.637-3.534-3.055-6.318-4.254-2.784-1.198-6.223-2.269-10.316-3.212l-12.084-2.93c-9.532-2.267-17.009-5.876-22.432-10.829-5.422-4.953-8.134-11.552-8.134-19.798 0-6.802 1.841-12.753 5.523-17.853 3.682-5.1 8.729-9.068 15.139-11.903 6.411-2.835 13.733-4.252 21.967-4.252 8.416 0 15.739 1.433 21.968 4.299 6.23 2.866 11.076 6.85 14.538 11.952 3.463 5.102 5.247 10.995 5.353 17.68h-23.459c-.398-4.319-2.205-7.667-5.419-10.045-3.215-2.378-7.598-3.567-13.147-3.567-3.732 0-6.9.521-9.504 1.562-2.604 1.041-4.577 2.476-5.917 4.306-1.34 1.83-2.01 3.913-2.01 6.251 0 2.549.773 4.682 2.318 6.397 1.546 1.715 3.636 3.125 6.269 4.23 2.633 1.105 5.551 2.032 8.752 2.782l9.902 2.368c4.977 1.114 9.528 2.606 13.655 4.477 4.126 1.87 7.69 4.141 10.691 6.81 3.002 2.67 5.313 5.8 6.936 9.389 1.622 3.59 2.433 7.686 2.433 12.288 0 6.884-1.728 12.846-5.185 17.886-3.457 5.04-8.43 8.922-14.918 11.646-6.488 2.723-14.298 4.085-23.429 4.085ZM654.517 150V38.275h24.324v44.616h47.053V38.275h24.324V150h-24.324v-47.072h-47.053V150h-24.324Z" style="fill:#1c1c1c;fill-rule:nonzero" transform="translate(83.925 14.486) scale(.39465)"/><path d="M321.383 151.572c-9.084 0-16.997-1.386-23.737-4.158-6.739-2.772-11.988-6.911-15.745-12.416-3.758-5.506-5.736-12.357-5.934-20.552h23.521c.274 3.697 1.346 6.79 3.215 9.279 1.868 2.489 4.385 4.356 7.55 5.603 3.165 1.246 6.78 1.869 10.847 1.869 3.919 0 7.318-.558 10.196-1.674 2.878-1.116 5.108-2.679 6.688-4.689 1.58-2.011 2.37-4.331 2.37-6.962 0-2.406-.714-4.428-2.142-6.065-1.429-1.637-3.535-3.055-6.319-4.254-2.784-1.198-6.222-2.269-10.315-3.212l-12.084-2.93c-9.532-2.267-17.01-5.876-22.432-10.829-5.423-4.953-8.134-11.552-8.134-19.798 0-6.802 1.841-12.753 5.523-17.853 3.682-5.1 8.728-9.068 15.139-11.903 6.41-2.835 13.733-4.252 21.967-4.252 8.416 0 15.738 1.433 21.968 4.299 6.229 2.866 11.075 6.85 14.538 11.952 3.462 5.102 5.247 10.995 5.353 17.68h-23.459c-.399-4.319-2.205-7.667-5.42-10.045s-7.597-3.567-13.147-3.567c-3.732 0-6.9.521-9.504 1.562-2.604 1.041-4.576 2.476-5.916 4.306-1.341 1.83-2.011 3.913-2.011 6.251 0 2.549.773 4.682 2.319 6.397 1.545 1.715 3.635 3.125 6.268 4.23 2.634 1.105 5.551 2.032 8.753 2.782l9.901 2.368c4.977 1.114 9.529 2.606 13.655 4.477 4.127 1.87 7.69 4.141 10.692 6.81 3.001 2.67 5.313 5.8 6.935 9.389 1.622 3.59 2.434 7.686 2.434 12.288 0 6.884-1.729 12.846-5.186 17.886-3.457 5.04-8.43 8.922-14.918 11.646-6.487 2.723-14.297 4.085-23.429 4.085ZM442.114 151.5c-9.956 0-18.875-2.242-26.756-6.724-7.882-4.483-14.101-10.995-18.657-19.537-4.556-8.542-6.834-18.884-6.834-31.026 0-12.224 2.301-22.615 6.905-31.172 4.604-8.558 10.854-15.074 18.751-19.551 7.897-4.476 16.761-6.714 26.591-6.714 6.465 0 12.476.895 18.034 2.686 5.557 1.791 10.477 4.407 14.759 7.848 4.281 3.441 7.783 7.651 10.504 12.631 2.721 4.979 4.488 10.657 5.299 17.033h-24.606c-.486-2.939-1.393-5.559-2.721-7.862a20.626 20.626 0 0 0-5.047-5.889c-2.037-1.623-4.376-2.855-7.019-3.698s-5.522-1.264-8.638-1.264c-5.662 0-10.604 1.409-14.825 4.227-4.222 2.819-7.484 6.903-9.786 12.252-2.302 5.349-3.452 11.84-3.452 19.473 0 7.803 1.171 14.371 3.513 19.704 2.343 5.334 5.609 9.35 9.799 12.049 4.19 2.699 9.076 4.049 14.657 4.049 3.116 0 5.987-.426 8.615-1.279 2.627-.852 4.974-2.084 7.042-3.698a20.679 20.679 0 0 0 5.141-5.888c1.36-2.313 2.298-4.929 2.816-7.848h24.606c-.573 5.102-2.071 10.043-4.495 14.825-2.423 4.781-5.705 9.085-9.845 12.913-4.141 3.827-9.084 6.86-14.829 9.1-5.746 2.24-12.253 3.36-19.522 3.36ZM518.817 150V38.275h24.323v44.616h47.053V38.275h24.324V150h-24.324v-47.072H543.14V150h-24.323ZM669.886 150 639.96 38.275h26.695l12.188 52.713c1.075 4.78 2.053 9.904 2.934 15.373.881 5.469 1.745 10.949 2.593 16.44.847 5.491 1.683 10.725 2.507 15.703h-4.408a642.405 642.405 0 0 0 2.749-15.703c.894-5.491 1.83-10.971 2.808-16.44a277.234 277.234 0 0 1 3.175-15.373l12.938-52.713h25.049l12.882 52.713c1.156 4.78 2.219 9.904 3.189 15.373.969 5.469 1.91 10.949 2.822 16.44a737.281 737.281 0 0 0 2.776 15.703h-4.539a669.492 669.492 0 0 0 2.56-15.703c.831-5.491 1.704-10.971 2.619-16.44a345.024 345.024 0 0 1 2.912-15.373l12.206-52.713h26.751L763.386 150h-27.685l-14.11-54.914c-1.657-6.64-3.053-13.826-4.187-21.557a763.145 763.145 0 0 0-3.822-23.468h6.106a304.442 304.442 0 0 0-3.86 23.114c-.971 7.644-2.338 14.947-4.102 21.911L697.598 150h-27.712ZM818.81 150V38.275h75.901v20.037h-51.578v25.423h47.573v19.661h-47.573v26.567h51.64V150H818.81ZM924.529 38.275h24.324V150h-24.324zM979.109 150v-14.285l44.571-62.349a172.18 172.18 0 0 1 9.53-11.968c3.47-4.002 6.99-7.982 10.54-11.941l1.77 7.851c-5.07.488-10.15.778-15.24.868-5.09.091-10.17.136-15.24.136h-36.06V38.275h86.16v14.342l-43.73 61.194a187.893 187.893 0 0 1-9.96 12.532c-3.62 4.177-7.27 8.335-10.96 12.475l-1.759-7.851a217.042 217.042 0 0 1 16.019-.868 935.21 935.21 0 0 1 15.97-.136h34.55V150h-86.161Z" style="fill:#1c1c1c;fill-rule:nonzero" transform="translate(83.925 80.182) scale(.39465)"/></svg>